<svg width="48" height="48" viewBox="0 0 48 48" fill="none" xmlns="http://www.w3.org/2000/svg">
<path opacity="0.3" d="M24 48C37.2548 48 48 37.2548 48 24C48 10.7452 37.2548 0 24 0C10.7452 0 0 10.7452 0 24C0 37.2548 10.7452 48 24 48Z" fill="#4DAF6A"/>
<path d="M38.0194 24C38.0194 31.7426 31.7428 38.0192 24.0002 38.0192C16.2576 38.0192 9.98096 31.7426 9.98096 24C9.98096 16.2574 16.2576 9.98077 24.0002 9.98077C31.7428 9.98077 38.0194 16.2574 38.0194 24Z" stroke="#3AB83A" stroke-width="1.5"/>
<path fill-rule="evenodd" clip-rule="evenodd" d="M17.6542 18.9621C18.3974 18.5162 19.3613 18.7572 19.8072 19.5003L22.8247 24.5296L21.0393 27.654L17.116 21.1151C16.6701 20.3719 16.911 19.408 17.6542 18.9621ZM21.366 28.1985L21.6868 28.7332L23.4722 25.6088L23.1514 25.0741L21.366 28.1985ZM22.2314 29.6408L24.687 25.3434L28.1929 19.5003C28.6388 18.7572 29.6027 18.5162 30.3458 18.9621C31.089 19.408 31.33 20.3719 30.8841 21.1151L25.3456 30.3458C25.062 30.8185 24.5512 31.1077 24 31.1077C23.4488 31.1077 22.938 30.8185 22.6544 30.3458L22.2314 29.6408Z" fill="#3AB83A"/>
</svg>
